# xmcd
#
# Track frame offsets:
# 150
# 4187
# 31363
# 46103
# 60220
# 76658
# 85024
# 110570
# 134306
#
# Disc length: 1975 seconds
#
#
# Revision: 1
# Processed by: cddbd v1.5.2PL0 Copyright (c) Steve Scherf et al.
# Submitted via: MfcCDDB 1.28 
#
DISCID=5c07b509
DTITLE=Unknown Artist 5c07b509 - Unknown Album 5c07b509
DYEAR=2000
DGENRE=Unknown Genre 5c07b509
TTITLE0=Track01
TTITLE1=Track02
TTITLE2=Track03
TTITLE3=Track04
TTITLE4=Track05
TTITLE5=Track06
TTITLE6=Track07
TTITLE7=Track08
TTITLE8=Track09
EXTD=
EXTT0=
EXTT1=
EXTT2=
EXTT3=
EXTT4=
EXTT5=
EXTT6=
EXTT7=
EXTT8=
PLAYORDER=
